<svg width="181" height="241" viewBox="0 0 181 241" fill="none" xmlns="http://www.w3.org/2000/svg">
<rect x="20" width="1" height="240" fill="#64616166"/>
<rect x="40" width="1" height="240" fill="#64616166"/>
<rect x="60" width="1" height="240" fill="#64616166"/>
<rect x="80" width="1" height="240" fill="#64616166"/>
<rect x="100" width="1" height="240" fill="#64616166"/>
<rect x="120" width="1" height="240" fill="#64616166"/>
<rect x="140" width="1" height="240" fill="#64616166"/>
<rect x="160" width="1" height="240" fill="#64616166"/>
<rect x="180" width="1" height="240" fill="#64616166"/>
<rect y="20" width="180" height="1" fill="#64616166"/>
<rect y="40" width="180" height="1" fill="#64616166"/>
<rect y="60" width="180" height="1" fill="#64616166"/>
<rect y="80" width="180" height="1" fill="#64616166"/>
<rect y="100" width="180" height="1" fill="#64616166"/>
<rect y="120" width="180" height="1" fill="#64616166"/>
<rect y="140" width="180" height="1" fill="#64616166"/>
<rect y="160" width="180" height="1" fill="#64616166"/>
<rect y="180" width="180" height="1" fill="#64616166"/>
<rect y="200" width="180" height="1" fill="#64616166"/>
<rect y="220" width="180" height="1" fill="#64616166"/>
<rect y="240" width="180" height="1" fill="#64616166"/>
<defs>

</defs>
</svg>