<svg height="876" fill="none" xmlns="http://www.w3.org/2000/svg" viewBox="0 0 585 876" width="585">
<rect x="73" width="1" height="863" fill="url(#paint0_linear_843_123)"/>
<rect x="146" width="1" height="863" fill="url(#paint1_linear_843_123)"/>
<rect x="219" width="1" height="863" fill="url(#paint2_linear_843_123)"/>
<rect x="292" width="1" height="863" fill="url(#paint3_linear_843_123)"/>
<rect x="365" width="1" height="863" fill="url(#paint4_linear_843_123)"/>
<rect x="438" width="1" height="863" fill="url(#paint5_linear_843_123)"/>
<rect x="511" width="1" height="863" fill="url(#paint6_linear_843_123)"/>
<rect x="584" width="1" height="863" fill="url(#paint7_linear_843_123)"/>
<rect x="1606" width="1" height="863" fill="url(#paint8_linear_843_123)"/>
<rect y="72" width="585" height="1" fill="#E2E2E2"/>
<rect y="145" width="585" height="1" fill="#E5E5E5"/>
<rect y="218" width="585" height="1" fill="#E7E7E7"/>
<rect y="291" width="585" height="1" fill="#E8E8E8"/>
<rect y="364" width="585" height="1" fill="#EAEAEA"/>
<rect y="437" width="585" height="1" fill="#EBEBEB"/>
<rect y="510" width="585" height="1" fill="#EDEDED"/>
<rect y="583" width="585" height="1" fill="#EFEFEF"/>
<rect y="656" width="585" height="1" fill="#F1F1F1"/>
<rect y="729" width="585" height="1" fill="#F2F2F2"/>
<rect y="802" width="585" height="1" fill="#F4F4F4"/>
<rect y="875" width="585" height="1" fill="#F5F5F5"/>
<defs>
<linearGradient id="paint0_linear_843_123" x1="73.5" y1="0" x2="73.5" y2="863" gradientUnits="userSpaceOnUse">
<stop offset="0.140625" stop-color="#E2E2E2"/>
<stop offset="1" stop-color="#E2E2E2" stop-opacity="0"/>
</linearGradient>
<linearGradient id="paint1_linear_843_123" x1="146.5" y1="0" x2="146.5" y2="863" gradientUnits="userSpaceOnUse">
<stop offset="0.140625" stop-color="#E2E2E2"/>
<stop offset="1" stop-color="#E2E2E2" stop-opacity="0"/>
</linearGradient>
<linearGradient id="paint2_linear_843_123" x1="219.5" y1="0" x2="219.5" y2="863" gradientUnits="userSpaceOnUse">
<stop offset="0.140625" stop-color="#E2E2E2"/>
<stop offset="1" stop-color="#E2E2E2" stop-opacity="0"/>
</linearGradient>
<linearGradient id="paint3_linear_843_123" x1="292.5" y1="0" x2="292.5" y2="863" gradientUnits="userSpaceOnUse">
<stop offset="0.140625" stop-color="#E2E2E2"/>
<stop offset="1" stop-color="#E2E2E2" stop-opacity="0"/>
</linearGradient>
<linearGradient id="paint4_linear_843_123" x1="365.5" y1="0" x2="365.5" y2="863" gradientUnits="userSpaceOnUse">
<stop offset="0.140625" stop-color="#E2E2E2"/>
<stop offset="1" stop-color="#E2E2E2" stop-opacity="0"/>
</linearGradient>
<linearGradient id="paint5_linear_843_123" x1="438.5" y1="0" x2="438.5" y2="863" gradientUnits="userSpaceOnUse">
<stop offset="0.140625" stop-color="#E2E2E2"/>
<stop offset="1" stop-color="#E2E2E2" stop-opacity="0"/>
</linearGradient>
<linearGradient id="paint6_linear_843_123" x1="511.5" y1="0" x2="511.5" y2="863" gradientUnits="userSpaceOnUse">
<stop offset="0.140625" stop-color="#E2E2E2"/>
<stop offset="1" stop-color="#E2E2E2" stop-opacity="0"/>
</linearGradient>
<linearGradient id="paint7_linear_843_123" x1="584.5" y1="0" x2="584.5" y2="863" gradientUnits="userSpaceOnUse">
<stop offset="0.140625" stop-color="#E2E2E2"/>
<stop offset="1" stop-color="#E2E2E2" stop-opacity="0"/>
</linearGradient>
<linearGradient id="paint8_linear_843_123" x1="1606.5" y1="0" x2="1606.5" y2="863" gradientUnits="userSpaceOnUse">
<stop offset="0.140625" stop-color="#E2E2E2"/>
<stop offset="1" stop-color="#E2E2E2" stop-opacity="0"/>
</linearGradient>
</defs>
</svg>